<?xml version="1.0" encoding="UTF-8"?>
<svg id="Layer_1" xmlns="http://www.w3.org/2000/svg" version="1.1" viewBox="0 0 200 200">
  <!-- Generator: Adobe Illustrator 29.1.0, SVG Export Plug-In . SVG Version: 2.1.0 Build 142)  -->
  <path d="M77.2,9.91c-10.15-.38-56.48,4.61-34.84,19.83,6.9,5.06,16.09,10.3,22.36,16.71,21.3,19.91,29.16,52.68,18.25,79.82-3.69,9.54-9.37,18.21-16.51,25.55-4.34,4.5-9.37,8.5-14.63,11.97-5.18,3.88-17.51,9.79-14.81,15.78,4.89,7.39,24.74,9.75,34.79,10.39,45.77,3.2,92.71-28.21,101.36-71.9,12.79-59.06-37.92-108.58-95.75-108.14h-.22ZM76.49,178.04c-13.05-.66-10.73-7.42-3.92-15.7,4.49-5.58,10.03-11.64,13.92-17.93,4.67-7.33,8.21-15.34,10.41-23.75,5.61-20.97,2.23-44.01-8.9-62.61-4.9-8.95-13.81-17.34-19.07-25.49-3.04-4.85-2.28-8.26,2.02-9.62,5.39-2.09,19.16-.5,27.14,1.57,36.96,8.56,66.11,39.62,65.31,76.5-.38,44.91-43.82,77.41-86.58,77.04l-.33-.02Z"/>
</svg>